<svg width="306" height="32" viewBox="0 0 306 32" fill="none" xmlns="http://www.w3.org/2000/svg">
<rect width="306" height="32" fill="#F5F5F5"/>
<path d="M0 16C0 7.16344 7.16344 0 16 0H290C298.837 0 306 7.16344 306 16V16C306 24.8366 298.837 32 290 32H16C7.16344 32 0 24.8366 0 16V16Z" fill="#030000"/>
<path d="M30.3935 11.9091C30.2912 11.0455 29.8764 10.375 29.1491 9.89773C28.4219 9.42045 27.5298 9.18182 26.473 9.18182C25.7003 9.18182 25.0241 9.30682 24.4446 9.55682C23.8707 9.80682 23.4219 10.1506 23.098 10.5881C22.7798 11.0256 22.6207 11.5227 22.6207 12.0795C22.6207 12.5455 22.7315 12.946 22.9531 13.2812C23.1804 13.6108 23.4702 13.8864 23.8224 14.108C24.1747 14.3239 24.544 14.5028 24.9304 14.6449C25.3168 14.7812 25.6719 14.892 25.9957 14.9773L27.7685 15.4545C28.223 15.5739 28.7287 15.7386 29.2855 15.9489C29.848 16.1591 30.3849 16.446 30.8963 16.8097C31.4134 17.1676 31.8395 17.6278 32.1747 18.1903C32.5099 18.7528 32.6776 19.4432 32.6776 20.2614C32.6776 21.2045 32.4304 22.0568 31.9361 22.8182C31.4474 23.5795 30.7315 24.1847 29.7884 24.6335C28.8509 25.0824 27.7116 25.3068 26.3707 25.3068C25.1207 25.3068 24.0384 25.1051 23.1236 24.7017C22.2145 24.2983 21.4986 23.7358 20.9759 23.0142C20.4588 22.2926 20.1662 21.4545 20.098 20.5H22.2798C22.3366 21.1591 22.5582 21.7045 22.9446 22.1364C23.3366 22.5625 23.831 22.8807 24.4276 23.0909C25.0298 23.2955 25.6776 23.3977 26.3707 23.3977C27.1776 23.3977 27.902 23.267 28.544 23.0057C29.1861 22.7386 29.6946 22.3693 30.0696 21.8977C30.4446 21.4205 30.6321 20.8636 30.6321 20.2273C30.6321 19.6477 30.4702 19.1761 30.1463 18.8125C29.8224 18.4489 29.3963 18.1534 28.8679 17.9261C28.3395 17.6989 27.7685 17.5 27.1548 17.3295L25.0071 16.7159C23.6435 16.3239 22.5639 15.7642 21.7685 15.0369C20.973 14.3097 20.5753 13.358 20.5753 12.1818C20.5753 11.2045 20.8395 10.3523 21.3679 9.625C21.902 8.89205 22.6179 8.32386 23.5156 7.92045C24.419 7.51136 25.4276 7.30682 26.5412 7.30682C27.6662 7.30682 28.6662 7.50852 29.5412 7.91193C30.4162 8.30966 31.1094 8.85511 31.6207 9.54829C32.1378 10.2415 32.4105 11.0284 32.4389 11.9091H30.3935ZM41.5732 11.9091V13.6136H34.7891V11.9091H41.5732ZM36.7663 8.77273H38.7777V21.25C38.7777 21.8182 38.8601 22.2443 39.0249 22.5284C39.1953 22.8068 39.4112 22.9943 39.6726 23.0909C39.9396 23.1818 40.2209 23.2273 40.5163 23.2273C40.7379 23.2273 40.9197 23.2159 41.0618 23.1932C41.2038 23.1648 41.3175 23.142 41.4027 23.125L41.8118 24.9318C41.6754 24.983 41.4851 25.0341 41.2408 25.0852C40.9964 25.142 40.6868 25.1705 40.3118 25.1705C39.7436 25.1705 39.1868 25.0483 38.6413 24.804C38.1016 24.5597 37.6527 24.1875 37.2947 23.6875C36.9425 23.1875 36.7663 22.5568 36.7663 21.7955V8.77273ZM48.451 25.3068C47.6214 25.3068 46.8686 25.1506 46.1925 24.8381C45.5163 24.5199 44.9794 24.0625 44.5817 23.4659C44.1839 22.8636 43.9851 22.1364 43.9851 21.2841C43.9851 20.5341 44.1328 19.9261 44.4283 19.4602C44.7237 18.9886 45.1186 18.6193 45.6129 18.3523C46.1072 18.0852 46.6527 17.8864 47.2493 17.7557C47.8516 17.6193 48.4567 17.5114 49.0646 17.4318C49.8601 17.3295 50.505 17.2528 50.9993 17.2017C51.4993 17.1449 51.8629 17.0511 52.0902 16.9205C52.3232 16.7898 52.4396 16.5625 52.4396 16.2386V16.1705C52.4396 15.3295 52.2095 14.6761 51.7493 14.2102C51.2947 13.7443 50.6044 13.5114 49.6783 13.5114C48.718 13.5114 47.9652 13.7216 47.4197 14.142C46.8743 14.5625 46.4908 15.0114 46.2692 15.4886L44.3601 14.8068C44.701 14.0114 45.1555 13.392 45.7237 12.9489C46.2976 12.5 46.9226 12.1875 47.5987 12.0114C48.2805 11.8295 48.951 11.7386 49.6101 11.7386C50.0305 11.7386 50.5135 11.7898 51.0589 11.892C51.6101 11.9886 52.1413 12.1903 52.6527 12.4972C53.1697 12.804 53.5987 13.267 53.9396 13.8864C54.2805 14.5057 54.451 15.3352 54.451 16.375V25H52.4396V23.2273H52.3374C52.201 23.5114 51.9737 23.8153 51.6555 24.1392C51.3374 24.4631 50.9141 24.7386 50.3857 24.9659C49.8572 25.1932 49.2124 25.3068 48.451 25.3068ZM48.7578 23.5C49.5533 23.5 50.2237 23.3438 50.7692 23.0312C51.3203 22.7188 51.7351 22.3153 52.0135 21.821C52.2976 21.3267 52.4396 20.8068 52.4396 20.2614V18.4205C52.3544 18.5227 52.1669 18.6165 51.8771 18.7017C51.593 18.7812 51.2635 18.8523 50.8885 18.9148C50.5192 18.9716 50.1584 19.0227 49.8061 19.0682C49.4595 19.108 49.1783 19.142 48.9624 19.1705C48.4396 19.2386 47.951 19.3494 47.4964 19.5028C47.0476 19.6506 46.6839 19.875 46.4055 20.1761C46.1328 20.4716 45.9964 20.875 45.9964 21.3864C45.9964 22.0852 46.255 22.6136 46.772 22.9716C47.2947 23.3239 47.9567 23.5 48.7578 23.5ZM58.1222 25V11.9091H60.0653V13.8864H60.2017C60.4403 13.2386 60.8722 12.7131 61.4972 12.3097C62.1222 11.9062 62.8267 11.7045 63.6108 11.7045C63.7585 11.7045 63.9432 11.7074 64.1648 11.7131C64.3864 11.7187 64.554 11.7273 64.6676 11.7386V13.7841C64.5994 13.767 64.4432 13.7415 64.1989 13.7074C63.9602 13.6676 63.7074 13.6477 63.4403 13.6477C62.804 13.6477 62.2358 13.7812 61.7358 14.0483C61.2415 14.3097 60.8494 14.6733 60.5597 15.1392C60.2756 15.5994 60.1335 16.125 60.1335 16.7159V25H58.1222ZM73.5653 11.9091V13.6136H66.7812V11.9091H73.5653ZM68.7585 8.77273H70.7699V21.25C70.7699 21.8182 70.8523 22.2443 71.017 22.5284C71.1875 22.8068 71.4034 22.9943 71.6648 23.0909C71.9318 23.1818 72.2131 23.2273 72.5085 23.2273C72.7301 23.2273 72.9119 23.2159 73.054 23.1932C73.196 23.1648 73.3097 23.142 73.3949 23.125L73.804 24.9318C73.6676 24.983 73.4773 25.0341 73.233 25.0852C72.9886 25.142 72.679 25.1705 72.304 25.1705C71.7358 25.1705 71.179 25.0483 70.6335 24.804C70.0938 24.5597 69.6449 24.1875 69.2869 23.6875C68.9347 23.1875 68.7585 22.5568 68.7585 21.7955V8.77273ZM89.0341 11.9091V13.6136H82.25V11.9091H89.0341ZM84.2273 8.77273H86.2386V21.25C86.2386 21.8182 86.321 22.2443 86.4858 22.5284C86.6563 22.8068 86.8722 22.9943 87.1335 23.0909C87.4006 23.1818 87.6818 23.2273 87.9773 23.2273C88.1989 23.2273 88.3807 23.2159 88.5227 23.1932C88.6648 23.1648 88.7784 23.142 88.8636 23.125L89.2727 24.9318C89.1364 24.983 88.946 25.0341 88.7017 25.0852C88.4574 25.142 88.1477 25.1705 87.7727 25.1705C87.2045 25.1705 86.6477 25.0483 86.1023 24.804C85.5625 24.5597 85.1136 24.1875 84.7557 23.6875C84.4034 23.1875 84.2273 22.5568 84.2273 21.7955V8.77273ZM94.3523 17.125V25H92.3409V7.54545H94.3523V13.9545H94.5227C94.8295 13.2784 95.2898 12.7415 95.9034 12.3438C96.5227 11.9403 97.3466 11.7386 98.375 11.7386C99.267 11.7386 100.048 11.9176 100.719 12.2756C101.389 12.6278 101.909 13.1705 102.278 13.9034C102.653 14.6307 102.841 15.5568 102.841 16.6818V25H100.83V16.8182C100.83 15.7784 100.56 14.9744 100.02 14.4062C99.4858 13.8324 98.7443 13.5455 97.7955 13.5455C97.1364 13.5455 96.5455 13.6847 96.0227 13.9631C95.5057 14.2415 95.0966 14.6477 94.7955 15.1818C94.5 15.7159 94.3523 16.3636 94.3523 17.125ZM112.009 25.2727C110.748 25.2727 109.66 24.9943 108.745 24.4375C107.836 23.875 107.134 23.0909 106.64 22.0852C106.151 21.0739 105.907 19.8977 105.907 18.5568C105.907 17.2159 106.151 16.0341 106.64 15.0114C107.134 13.983 107.822 13.1818 108.702 12.608C109.589 12.0284 110.623 11.7386 111.805 11.7386C112.487 11.7386 113.16 11.8523 113.825 12.0795C114.489 12.3068 115.094 12.6761 115.64 13.1875C116.185 13.6932 116.62 14.3636 116.944 15.1989C117.268 16.0341 117.43 17.0625 117.43 18.2841V19.1364H107.339V17.3977H115.384C115.384 16.6591 115.237 16 114.941 15.4205C114.651 14.8409 114.237 14.3835 113.697 14.0483C113.163 13.7131 112.532 13.5455 111.805 13.5455C111.004 13.5455 110.31 13.7443 109.725 14.142C109.146 14.5341 108.7 15.0455 108.387 15.6761C108.075 16.3068 107.918 16.983 107.918 17.7045V18.8636C107.918 19.8523 108.089 20.6903 108.43 21.3778C108.776 22.0597 109.256 22.5795 109.87 22.9375C110.484 23.2898 111.197 23.4659 112.009 23.4659C112.538 23.4659 113.015 23.392 113.441 23.2443C113.873 23.0909 114.245 22.8636 114.558 22.5625C114.87 22.2557 115.112 21.875 115.282 21.4205L117.225 21.9659C117.021 22.625 116.677 23.2045 116.194 23.7045C115.711 24.1989 115.114 24.5852 114.404 24.8636C113.694 25.1364 112.896 25.2727 112.009 25.2727ZM147.762 25V7.54545H149.876V16.2045H150.08L157.921 7.54545H160.683L153.353 15.4205L160.683 25H158.126L152.058 16.8864L149.876 19.3409V25H147.762ZM167.503 25.2727C166.321 25.2727 165.284 24.9915 164.392 24.429C163.506 23.8665 162.812 23.0795 162.312 22.0682C161.818 21.0568 161.571 19.875 161.571 18.5227C161.571 17.1591 161.818 15.9687 162.312 14.9517C162.812 13.9347 163.506 13.1449 164.392 12.5824C165.284 12.0199 166.321 11.7386 167.503 11.7386C168.685 11.7386 169.719 12.0199 170.605 12.5824C171.497 13.1449 172.19 13.9347 172.685 14.9517C173.185 15.9687 173.435 17.1591 173.435 18.5227C173.435 19.875 173.185 21.0568 172.685 22.0682C172.19 23.0795 171.497 23.8665 170.605 24.429C169.719 24.9915 168.685 25.2727 167.503 25.2727ZM167.503 23.4659C168.401 23.4659 169.139 23.2358 169.719 22.7756C170.298 22.3153 170.727 21.7102 171.006 20.9602C171.284 20.2102 171.423 19.3977 171.423 18.5227C171.423 17.6477 171.284 16.8324 171.006 16.0767C170.727 15.321 170.298 14.7102 169.719 14.2443C169.139 13.7784 168.401 13.5455 167.503 13.5455C166.605 13.5455 165.866 13.7784 165.287 14.2443C164.707 14.7102 164.278 15.321 164 16.0767C163.722 16.8324 163.582 17.6477 163.582 18.5227C163.582 19.3977 163.722 20.2102 164 20.9602C164.278 21.7102 164.707 22.3153 165.287 22.7756C165.866 23.2358 166.605 23.4659 167.503 23.4659ZM182.198 11.9091V13.6136H175.414V11.9091H182.198ZM177.391 8.77273H179.403V21.25C179.403 21.8182 179.485 22.2443 179.65 22.5284C179.82 22.8068 180.036 22.9943 180.298 23.0909C180.565 23.1818 180.846 23.2273 181.141 23.2273C181.363 23.2273 181.545 23.2159 181.687 23.1932C181.829 23.1648 181.942 23.142 182.028 23.125L182.437 24.9318C182.3 24.983 182.11 25.0341 181.866 25.0852C181.621 25.142 181.312 25.1705 180.937 25.1705C180.369 25.1705 179.812 25.0483 179.266 24.804C178.727 24.5597 178.278 24.1875 177.92 23.6875C177.567 23.1875 177.391 22.5568 177.391 21.7955V8.77273ZM187.516 7.54545V25H185.505V7.54545H187.516ZM191.2 25V11.9091H193.212V25H191.2ZM192.223 9.72727C191.831 9.72727 191.493 9.59375 191.209 9.3267C190.93 9.05966 190.791 8.73864 190.791 8.36364C190.791 7.98864 190.93 7.66761 191.209 7.40057C191.493 7.13352 191.831 7 192.223 7C192.615 7 192.95 7.13352 193.229 7.40057C193.513 7.66761 193.655 7.98864 193.655 8.36364C193.655 8.73864 193.513 9.05966 193.229 9.3267C192.95 9.59375 192.615 9.72727 192.223 9.72727ZM198.907 17.125V25H196.896V11.9091H198.839V13.9545H199.009C199.316 13.2898 199.782 12.7557 200.407 12.3523C201.032 11.9432 201.839 11.7386 202.827 11.7386C203.714 11.7386 204.489 11.9205 205.154 12.2841C205.819 12.642 206.336 13.1875 206.705 13.9205C207.075 14.6477 207.259 15.5682 207.259 16.6818V25H205.248V16.8182C205.248 15.7898 204.981 14.9886 204.447 14.4148C203.913 13.8352 203.18 13.5455 202.248 13.5455C201.606 13.5455 201.032 13.6847 200.526 13.9631C200.026 14.2415 199.631 14.6477 199.342 15.1818C199.052 15.7159 198.907 16.3636 198.907 17.125ZM223.378 11.9091V13.6136H216.594V11.9091H223.378ZM218.571 8.77273H220.582V21.25C220.582 21.8182 220.665 22.2443 220.83 22.5284C221 22.8068 221.216 22.9943 221.477 23.0909C221.744 23.1818 222.026 23.2273 222.321 23.2273C222.543 23.2273 222.724 23.2159 222.866 23.1932C223.009 23.1648 223.122 23.142 223.207 23.125L223.616 24.9318C223.48 24.983 223.29 25.0341 223.045 25.0852C222.801 25.142 222.491 25.1705 222.116 25.1705C221.548 25.1705 220.991 25.0483 220.446 24.804C219.906 24.5597 219.457 24.1875 219.099 23.6875C218.747 23.1875 218.571 22.5568 218.571 21.7955V8.77273ZM231.581 25.2727C230.399 25.2727 229.362 24.9915 228.47 24.429C227.584 23.8665 226.891 23.0795 226.391 22.0682C225.896 21.0568 225.649 19.875 225.649 18.5227C225.649 17.1591 225.896 15.9687 226.391 14.9517C226.891 13.9347 227.584 13.1449 228.47 12.5824C229.362 12.0199 230.399 11.7386 231.581 11.7386C232.763 11.7386 233.797 12.0199 234.683 12.5824C235.575 13.1449 236.268 13.9347 236.763 14.9517C237.263 15.9687 237.513 17.1591 237.513 18.5227C237.513 19.875 237.263 21.0568 236.763 22.0682C236.268 23.0795 235.575 23.8665 234.683 24.429C233.797 24.9915 232.763 25.2727 231.581 25.2727ZM231.581 23.4659C232.479 23.4659 233.217 23.2358 233.797 22.7756C234.376 22.3153 234.805 21.7102 235.084 20.9602C235.362 20.2102 235.501 19.3977 235.501 18.5227C235.501 17.6477 235.362 16.8324 235.084 16.0767C234.805 15.321 234.376 14.7102 233.797 14.2443C233.217 13.7784 232.479 13.5455 231.581 13.5455C230.683 13.5455 229.945 13.7784 229.365 14.2443C228.786 14.7102 228.357 15.321 228.078 16.0767C227.8 16.8324 227.661 17.6477 227.661 18.5227C227.661 19.3977 227.8 20.2102 228.078 20.9602C228.357 21.7102 228.786 22.3153 229.365 22.7756C229.945 23.2358 230.683 23.4659 231.581 23.4659ZM248.833 19.6477V11.9091H250.844V25H248.833V22.7841H248.697C248.39 23.4489 247.913 24.0142 247.265 24.4801C246.617 24.9403 245.799 25.1705 244.81 25.1705C243.992 25.1705 243.265 24.9915 242.629 24.6335C241.992 24.2699 241.492 23.7244 241.129 22.9972C240.765 22.2642 240.583 21.3409 240.583 20.2273V11.9091H242.594V20.0909C242.594 21.0455 242.862 21.8068 243.396 22.375C243.935 22.9432 244.623 23.2273 245.458 23.2273C245.958 23.2273 246.467 23.0994 246.984 22.8438C247.506 22.5881 247.944 22.196 248.296 21.6676C248.654 21.1392 248.833 20.4659 248.833 19.6477ZM254.528 25V11.9091H256.472V13.8864H256.608C256.847 13.2386 257.278 12.7131 257.903 12.3097C258.528 11.9062 259.233 11.7045 260.017 11.7045C260.165 11.7045 260.349 11.7074 260.571 11.7131C260.793 11.7187 260.96 11.7273 261.074 11.7386V13.7841C261.006 13.767 260.849 13.7415 260.605 13.7074C260.366 13.6676 260.114 13.6477 259.847 13.6477C259.21 13.6477 258.642 13.7812 258.142 14.0483C257.648 14.3097 257.256 14.6733 256.966 15.1392C256.682 15.5994 256.54 16.125 256.54 16.7159V25H254.528ZM281.271 25L279.958 23.7045L285.362 18.3011H271.367V16.4261H285.362L279.958 11.0398L281.271 9.72727L288.907 17.3636L281.271 25Z" fill="#FFFDFD"/>
<g clip-path="url(#clip0_0_1)">
<path d="M144.993 24.7307H127V7.69545H144.993L135.996 16.2114L144.993 24.7307Z" fill="white"/>
</g>
<defs>
<clipPath id="clip0_0_1">
<rect width="18" height="18" fill="white" transform="translate(127 7)"/>
</clipPath>
</defs>
</svg>
